<svg width="33" height="32" viewBox="0 0 33 32" fill="none" xmlns="http://www.w3.org/2000/svg">
<path d="M28.7667 23.1235H11.0731L7.31348 4.36841H31.8879L28.7667 23.1235Z" stroke="black" stroke-width="2" stroke-linecap="round" stroke-linejoin="round"/>
<path d="M14.9729 31C15.5017 31 15.9304 30.4964 15.9304 29.875C15.9304 29.2537 15.5017 28.75 14.9729 28.75C14.4442 28.75 14.0155 29.2537 14.0155 29.875C14.0155 30.4964 14.4442 31 14.9729 31Z" stroke="black" stroke-width="2" stroke-linecap="round" stroke-linejoin="round"/>
<path d="M24.5474 31C25.0762 31 25.5049 30.4964 25.5049 29.875C25.5049 29.2537 25.0762 28.75 24.5474 28.75C24.0186 28.75 23.59 29.2537 23.59 29.875C23.59 30.4964 24.0186 31 24.5474 31Z" stroke="black" stroke-width="2" stroke-linecap="round" stroke-linejoin="round"/>
<path d="M29.973 13.746H21.0369" stroke="black" stroke-width="2" stroke-linecap="round" stroke-linejoin="round"/>
<path d="M7.35167 4.50343L5.71124 2.58291C4.92072 1.65139 3.8615 1.10256 2.74315 1.04501L1.88782 1" stroke="black" stroke-width="2" stroke-linecap="round" stroke-linejoin="round"/>
</svg>
