<svg width="420" height="51" viewBox="0 0 420 51" fill="none" xmlns="http://www.w3.org/2000/svg">
<path d="M419.863 19.7085C419.672 18.7644 419.265 17.6682 418.645 16.4202C417.775 14.6671 416.22 11.8858 415.69 11.1528C414.4 9.32489 412.021 7.27179 409.428 5.74437L408.42 5.14665L408.14 5.30035C407.876 5.45398 407.786 5.67381 406.078 10.3182C405.093 12.994 404.296 15.2301 404.296 15.2969C404.296 15.3542 404.958 16.1726 405.768 17.1051C407.868 19.5123 408.042 19.9602 408.055 22.8997C408.066 24.6081 408.066 24.6272 407.795 25.5252C407.106 27.8182 406.185 29.1004 403.919 30.8835L403.153 31.4971L403.187 31.9837C403.229 32.5275 403.27 32.6228 405.513 36.9383C406.192 38.253 406.937 39.6534 407.177 40.0629C407.591 40.8059 407.607 40.8154 407.896 40.7666C408.49 40.6786 411.259 38.8746 412.305 37.9165C413.466 36.8339 414.948 34.8435 416.683 32.0315C418.386 29.2577 419.281 26.8972 419.747 23.9178C419.959 22.5332 420.021 20.4715 419.863 19.7085Z" fill="black"/>
<path d="M405.566 24.9125C405.508 24.3496 405.458 24.3403 403.866 24.3745C402.802 24.3974 402.414 24.4369 402.415 24.5228C402.415 24.5896 402.284 25.0386 402.119 25.5354C401.824 26.4048 401.413 27.1315 399.858 29.4654C399.422 30.1159 399.397 30.2686 399.678 30.4871C399.843 30.6106 399.942 30.5721 400.972 29.9482C402.431 29.0746 403.123 28.5092 404.003 27.4754C404.679 26.681 405.411 25.6669 405.542 25.342C405.575 25.2655 405.583 25.0746 405.566 24.9125Z" fill="black"/>
<path d="M404.642 19.8477C404.46 19.543 404.154 19.086 403.947 18.8482C403.228 17.9823 401.387 16.92 399.687 16.3916C398.374 15.9859 398.11 16.025 398.111 16.6071C398.112 16.9697 398.377 17.2837 399.599 18.3768C400.401 19.0992 400.731 19.4607 401.07 20.013C402.063 21.6413 402.162 21.765 402.674 21.9063C403.128 22.0288 403.169 22.0191 404.035 21.7011L404.925 21.3831L404.949 20.8963C404.973 20.4668 404.931 20.3524 404.642 19.8477Z" fill="black"/>
<path d="M404.598 3.7477C404.491 3.67172 404.218 3.55816 403.987 3.50171C403.764 3.43569 402.7 3.11495 401.635 2.78467C400.57 2.45439 399.489 2.1528 399.233 2.12507C398.581 2.03193 398.54 2.10843 398.468 3.4353C398.42 4.34214 398.371 4.6 398.182 5.03969C398.051 5.32648 397.911 5.84234 397.854 6.18613C397.805 6.52988 397.667 7.40842 397.561 8.14368C397.446 8.87897 397.225 9.9773 397.07 10.5791C396.914 11.1809 396.783 11.8399 396.784 12.0404C396.785 12.613 397.198 12.9647 397.882 12.9622C398.402 12.9604 400.16 13.4791 400.779 13.811C401.424 14.1618 401.523 14.1233 401.835 13.4541C401.95 13.2056 402.648 11.2943 403.378 9.2207C404.643 5.63725 404.717 5.40793 404.757 4.6729C404.788 3.92836 404.788 3.89019 404.598 3.7477Z" fill="black"/>
<path d="M404.103 41.7725C402.712 38.8283 400.608 34.1878 400.451 33.7207C400.368 33.4633 400.343 33.4539 399.989 33.5028C399.774 33.5227 399.51 33.6381 399.387 33.7531C398.975 34.1363 398.373 34.4439 396.881 35.0218C395.125 35.7056 395.108 35.7152 395.043 36.0113C394.986 36.2978 395.143 36.6408 395.623 37.2881C395.879 37.6308 396.003 37.888 396.004 38.0694C396.004 38.2221 396.261 38.9942 396.576 39.8044C397.214 41.4437 397.976 43.512 398.192 44.1984C398.275 44.4463 398.407 44.694 398.49 44.7414C398.779 44.9122 399.299 44.834 400.032 44.5069C400.428 44.3242 401.392 43.8817 402.159 43.5354C404.146 42.6313 404.401 42.4013 404.103 41.7725Z" fill="black"/>
<path d="M398.291 24.9383C398.25 24.9098 397.994 24.9298 397.738 24.988C397.474 25.0366 396.46 25.1261 395.486 25.1772C393.696 25.279 393.424 25.3181 393.424 25.509C393.425 25.5663 392.932 26.6847 392.323 28.0039C390.869 31.1776 389.891 33.4525 389.891 33.6816C389.892 33.9297 390.065 34.0818 390.428 34.1473C390.676 34.1942 390.766 34.1557 390.964 33.9355C391.195 33.677 391.236 33.6673 392.094 33.6547C392.977 33.6421 392.993 33.642 393.99 33.1327C394.955 32.652 395.927 31.9996 396.133 31.703C396.182 31.6265 396.207 31.5024 396.182 31.4261C396.074 31.102 396.411 30.1368 397.356 28.0338C398.178 26.2176 398.375 25.7015 398.374 25.3866C398.374 25.1766 398.34 24.9667 398.291 24.9383Z" fill="black"/>
<path d="M395.466 18.0289L392.828 14.6501L391.525 14.5975C388.315 14.4561 387.614 14.4681 387.524 14.6402C387.384 14.8889 387.524 15.0792 392.138 21.2188C393.04 22.4277 393.18 22.5227 393.988 22.5198C394.591 22.5177 397.898 22.1242 397.964 22.0381C397.997 22.0094 398.038 21.8565 398.062 21.6942C398.111 21.4268 397.93 21.1697 395.466 18.0289Z" fill="black"/>
<path d="M394.893 1.46242C394.545 1.09143 394.339 0.996723 393.184 0.676306C391.706 0.27113 390.749 0.102718 389.858 0.105863L389.091 0.108571L388.86 0.481599C388.646 0.825937 388.614 0.969212 388.566 1.87606C388.534 2.56334 388.412 3.33683 388.207 4.24423L387.904 5.60054L387.916 7.98649C387.931 11.5368 387.881 11.4606 390.034 11.5676C390.818 11.603 391.808 11.6854 392.229 11.7316C393.104 11.8335 393.219 11.8045 393.276 11.4893C393.301 11.3651 393.334 11.1551 393.358 11.0404C393.374 10.9163 393.448 10.3625 393.513 9.80873C393.586 9.25492 393.839 7.8606 394.085 6.71446C394.535 4.63228 394.633 4.24063 394.945 3.23742C395.035 2.95078 395.109 2.48287 395.117 2.20606C395.116 1.77659 395.083 1.66218 394.893 1.46242Z" fill="black"/>
<path d="M394.531 45.2804C394.414 44.3837 394.29 44.0501 394.009 43.8507C393.744 43.6607 393.744 43.6512 393.768 42.9448C393.807 41.7708 393.292 39.7875 392.58 38.3679C392.39 37.9773 392.199 37.558 392.175 37.4436C392.092 37.148 391.654 36.7487 391.414 36.7496C391.299 36.75 391.093 36.8175 390.944 36.9135C390.747 37.0287 390.318 37.0875 389.278 37.1484C387.051 37.2803 386.763 37.3959 386.764 38.1689C386.765 38.6843 386.864 38.913 387.153 39.0933C387.343 39.2072 387.393 39.3215 387.476 39.8748C387.535 40.2373 387.585 40.762 387.586 41.0388C387.594 41.3155 387.703 42.1359 387.845 42.8512C388.144 44.4345 388.428 46.2468 388.428 46.5809C388.429 46.9531 388.76 47.6391 389.041 47.848C389.239 47.981 389.388 48.0186 389.668 47.9794C391.359 47.7349 393.767 47.211 394.179 46.9996C394.567 46.7978 394.665 46.3202 394.531 45.2804Z" fill="black"/>
<path d="M389.713 25.9041C389.588 25.5609 389.432 25.5233 388.533 25.6601C388.071 25.7381 387.262 25.8268 386.743 25.8669C386.083 25.9264 385.728 25.9945 385.58 26.1096C385.349 26.2917 380.941 33.847 380.801 34.3056C380.711 34.6209 380.843 34.9735 381.133 35.1539C381.232 35.2108 382.123 35.1885 383.665 35.0972C385.925 34.9651 386.066 34.9456 386.205 34.7542C386.28 34.6394 386.345 34.4578 386.345 34.3433C386.345 34.1142 389.41 27.165 389.64 26.8683C389.805 26.6673 389.837 26.2568 389.713 25.9041Z" fill="black"/>
<path d="M388.493 21.6038C383.672 15.1978 383.085 14.4554 382.862 14.5039C382.739 14.533 381.906 14.6982 381.007 14.8731C380.116 15.0576 379.324 15.2513 379.258 15.3183C378.97 15.5961 379.094 15.8438 380.815 18.3574C381.6 19.4999 382.642 21.0232 383.13 21.7373C384.264 23.3939 384.264 23.3939 385.715 23.2934C387.794 23.1429 388.817 23.0247 388.932 22.9098C389.163 22.6895 389.055 22.3558 388.493 21.6038Z" fill="black"/>
<path d="M385.5 46.7916C385.442 46.5532 385.309 46.1529 385.202 45.886C385.044 45.4762 385.011 45.2377 385.001 44.1688C384.991 43.1858 384.949 42.8042 384.816 42.3561C384.725 42.0415 384.617 41.5742 384.591 41.3071C384.516 40.7251 384.084 38.8179 383.91 38.3031C383.827 38.0553 383.711 37.903 383.587 37.8652C383.488 37.8369 382.548 37.8307 381.5 37.8535C379.941 37.8781 379.57 37.9176 379.471 38.0325C379.298 38.243 379.184 39.1024 379.267 39.5888C379.309 39.8082 379.367 40.1325 379.392 40.2947C379.426 40.4663 379.401 40.7336 379.344 40.8961C379.262 41.1159 379.263 41.8699 379.35 44.4942C379.403 46.3169 379.488 47.9772 379.53 48.1775C379.605 48.5017 379.671 48.5778 380.067 48.7864L380.521 49.0234L382.517 48.8541C383.68 48.7641 384.654 48.6366 384.843 48.55C385.074 48.4538 385.247 48.2909 385.403 48.0136C385.65 47.5737 385.658 47.421 385.5 46.7916Z" fill="black"/>
<path d="M385.073 0.313913C385.032 0.314059 383.564 0.405137 381.79 0.516381C380.025 0.627595 378.483 0.718936 378.375 0.719315L378.177 0.720013L378.231 3.18217C378.285 5.79703 378.386 6.74152 378.961 10.099C379.252 11.7968 379.319 12.0542 379.501 12.1299C379.567 12.1679 379.971 12.0806 380.391 11.9359C381.125 11.6947 381.983 11.5676 383.896 11.4368L384.82 11.3667L384.82 11.109C384.82 10.9754 384.89 8.67508 384.976 5.99292C385.148 0.475897 385.156 0.313622 385.073 0.313913Z" fill="black"/>
<path d="M380.862 26.689C380.68 26.4892 380.623 26.4894 378.717 26.5343C376.811 26.5697 376.754 26.5795 376.531 26.7998C376.251 27.0584 373.397 32.165 373.093 32.9391C372.831 33.6177 372.733 34.706 372.924 34.8867C373.254 35.21 376.851 35.4645 377.247 35.1959C377.585 34.9752 378.259 33.7321 379.081 31.8204C379.96 29.7845 381.053 27.0987 381.052 26.9747C381.052 26.927 380.97 26.8032 380.862 26.689Z" fill="black"/>
<path d="M378.293 19.8932L375.87 16.7141L375.482 16.6868C375.136 16.6594 374.08 16.9399 372.407 17.4994C371.912 17.6634 371.756 17.9216 371.913 18.3219C372.037 18.6651 376.114 23.938 376.378 24.0993C376.551 24.2133 376.898 24.212 378.35 24.1306C380.437 24.0087 380.717 23.9027 380.716 23.2442C380.716 23.1487 379.624 21.6446 378.293 19.8932Z" fill="black"/>
<path d="M375.639 7.05669L374.879 1.877L374.599 1.87799C374.45 1.87851 373.156 2.29347 371.73 2.79479C368.547 3.92267 368.3 4.01898 368.193 4.21024C368.135 4.32497 368.459 5.50728 369.596 9.21587C371.57 15.6797 371.413 15.2031 371.594 15.2311C371.759 15.2591 375.683 13.5369 376.112 13.2491C376.334 13.0956 376.367 13.0191 376.383 12.6564C376.391 12.4178 376.056 9.89932 375.639 7.05669Z" fill="black"/>
<path d="M376.379 39.1885C376.353 38.4823 376.295 37.8526 376.261 37.7859C376.104 37.5002 375.584 37.4256 373.687 37.4323C371.509 37.44 371.525 37.4304 371.147 38.3003C370.95 38.7495 370.934 38.8832 370.895 40.4485C370.865 42.1475 370.67 43.7038 370.261 45.5568C370.097 46.3305 370.049 47.2278 370.149 47.7714C370.207 48.048 370.232 48.067 370.488 48.0184C370.677 47.9795 370.991 48.0548 371.495 48.2629C372.147 48.5279 373.344 48.8195 375.019 49.119C375.77 49.25 376.083 49.1343 376.305 48.6373C376.502 48.188 376.517 47.5199 376.343 47.0433C376.194 46.6334 376.185 46.1372 376.317 45.984C376.432 45.85 376.474 41.3642 376.379 39.1885Z" fill="black"/>
<path d="M372.019 27.1214C371.788 27.0172 371.408 26.9994 369.899 27.0525C368.777 27.0946 368.01 27.1641 367.927 27.2312C367.853 27.2888 367.499 27.7863 367.137 28.3411C366.775 28.896 366.068 29.9674 365.566 30.7327C364.364 32.5312 364.25 32.9992 364.96 33.2067C365.645 33.4142 367.625 33.7795 368.029 33.778C368.549 33.7762 368.73 33.6706 368.903 33.2691C368.977 33.0971 369.528 32.2362 370.129 31.3369C371.626 29.0888 372.309 27.9029 372.309 27.5498C372.308 27.3112 372.258 27.235 372.019 27.1214Z" fill="black"/>
<path d="M370.929 22.219C370.4 21.3048 369.837 20.2953 369.68 19.9809C369.349 19.3332 369.283 19.2666 368.994 19.2676C368.763 19.2684 365.335 21.2845 365.343 21.4085C365.352 21.4562 365.93 22.2462 366.641 23.1789L367.923 24.8634L369.803 24.6755C370.834 24.5669 371.708 24.4588 371.733 24.4206C371.766 24.3918 371.807 24.2581 371.832 24.1244C371.872 23.9334 371.699 23.5619 370.929 22.219Z" fill="black"/>
<path d="M366.977 11.9736C366.008 9.55287 365.063 7.1893 364.873 6.71277L364.525 5.8455L361.533 7.42127C359.893 8.29556 358.533 9.0257 358.524 9.03528C358.508 9.05442 359.319 10.6645 360.329 12.627C361.331 14.5895 362.498 16.8664 362.903 17.6953C363.557 18.991 363.681 19.1909 363.863 19.1903C364.119 19.1894 368.742 16.5962 368.734 16.4626C368.734 16.4054 367.938 14.3848 366.977 11.9736Z" fill="black"/>
<path d="M367.86 36.2409C367.794 36.098 367.662 36.0698 367.192 36.0715C366.746 36.0731 366.392 35.998 365.731 35.7522C364.402 35.2606 362.95 34.9126 362.752 35.0373C362.57 35.1525 362.422 35.4298 362.423 35.6589C362.423 35.7447 361.815 37.0926 361.083 38.6508C358.51 44.0904 358.313 44.5302 358.314 44.9596C358.315 45.4273 358.604 45.8653 359.001 46.0166C359.876 46.3475 363.977 47.1729 364.819 47.1891C365.553 47.196 365.578 47.1768 365.807 46.0117C365.897 45.5532 366.126 44.7698 366.307 44.2729C366.66 43.2886 367.045 41.5598 367.543 38.6662C367.723 37.6348 367.886 36.699 367.911 36.5939C367.927 36.4888 367.902 36.3267 367.86 36.2409Z" fill="black"/>
<path d="M41.3193 4.57255C40.7658 4.58326 39.7786 4.22774 39.093 3.7697C38.5762 3.42924 38.1349 3.25651 37.307 3.07917C36.6992 2.94592 35.8175 2.66086 35.3545 2.42812C34.6918 2.11466 34.3877 2.03595 33.9914 2.07988L33.4801 2.12603L33.4148 2.67111C33.3774 2.97396 33.2798 5.63452 33.2075 8.59672C33.1352 11.5589 33.0493 14.3039 33.0239 14.7152L32.9821 15.4411L33.663 15.573C34.0298 15.6505 34.8462 15.7555 35.4739 15.8159C36.0909 15.8644 37.0852 15.9901 37.6715 16.0755C39.0115 16.2671 39.3979 16.2596 39.8439 16.0334C40.0928 15.9077 40.2159 15.7483 40.2542 15.5058C40.2934 15.3238 40.4403 14.6442 40.5984 14.0127C41.0914 11.9729 41.2154 11.1487 41.0728 10.6802C40.9303 10.2116 41.0191 9.12228 41.3934 6.8189C41.5179 6.03098 41.6208 5.19513 41.6176 4.97766C41.6123 4.60313 41.5804 4.56749 41.3193 4.57255Z" fill="black"/>
<path d="M37.9581 34.5478C37.8314 34.4536 36.6387 34.3317 33.0198 34.0392C31.3043 33.8911 31.1268 33.8945 30.8891 34.0804C30.7549 34.1918 30.6014 34.4123 30.5514 34.5703C30.5016 34.7405 30.2259 36.6311 29.9328 38.7758C29.6504 40.9323 29.2916 43.5859 29.1299 44.6887C28.9784 45.7793 28.8464 46.7728 28.8483 46.9057C28.8535 47.2682 29.3085 47.6703 29.8111 47.7451C30.7638 47.8838 35.21 48.3174 35.8788 48.3286C36.6626 48.3497 36.8801 48.2125 36.9553 47.631C36.9836 47.425 37.2358 44.6164 37.5027 41.3846C37.7801 38.1526 38.0215 35.32 38.0493 35.0778C38.0767 34.7993 38.0425 34.6066 37.9581 34.5478Z" fill="black"/>
<path d="M36.0204 18.9475C35.595 18.424 35.175 18.275 33.9408 18.178C32.4661 18.0616 31.5738 18.4897 30.7663 19.7259C30.1627 20.6198 29.8407 21.472 29.8501 22.1244C29.856 22.5352 30.0681 22.7607 30.2852 22.5994C30.3474 22.5619 31.0379 22.6331 31.8339 22.7748C32.6926 22.9153 33.4143 22.9738 33.6329 22.9213C33.8932 22.8558 34.2951 22.4734 35.1996 21.4408C36.5765 19.8431 36.6267 19.6971 36.0204 18.9475Z" fill="black"/>
<path d="M35.0094 30.0126C34.9231 29.8209 34.7308 29.5225 34.603 29.3558C34.2519 28.9154 34.1219 28.5916 34.1148 28.0963C34.1083 27.6493 33.8044 26.8576 33.5503 26.6208C33.4657 26.5499 32.6914 26.4682 31.6672 26.4397L29.9323 26.3887L29.6656 26.7322C29.2554 27.2719 29.3151 27.7904 29.9628 29.2401C30.265 29.911 30.6094 30.6174 30.7269 30.7964C30.9301 31.1187 30.951 31.1183 31.1362 30.9214C31.3111 30.7367 31.4363 30.7222 32.3782 30.8369C33.7594 30.9915 34.9185 30.9569 35.0726 30.7727C35.2267 30.5884 35.2247 30.4555 35.0094 30.0126Z" fill="black"/>
<path d="M30.0522 2.03481C29.8432 1.30169 29.5899 1.12533 28.4484 0.929946C25.076 0.34279 25.1911 0.352643 24.9225 0.563297L24.6641 0.761668L24.6498 4.85873C24.6507 7.1065 24.6273 9.85023 24.6118 10.9503C24.5741 12.6912 24.6002 13.0533 24.7655 13.6543C24.9632 14.3272 24.995 14.3628 25.6161 14.6892C26.2476 15.0153 26.3209 15.026 27.605 14.9648C29.3381 14.8828 29.3072 14.9197 29.4616 12.5722C29.5216 11.6526 29.6799 10.3081 29.8155 9.56829C30.2023 7.39759 30.3484 3.02002 30.0522 2.03481Z" fill="black"/>
<path d="M27.3893 18.0993C27.272 17.9324 26.9132 17.6856 26.5875 17.5589C25.8307 17.2352 25.1415 17.2606 24.6139 17.6213C23.9517 18.0692 23.0347 19.6821 22.8411 20.7494C22.764 21.198 22.7758 21.2944 22.9563 21.4964C23.1262 21.6865 23.3043 21.7193 24.1814 21.6902C24.735 21.6795 25.2671 21.6329 25.3708 21.5826C25.4641 21.5324 26.0102 21.0022 26.5761 20.3991C27.5436 19.3894 27.6152 19.2793 27.6091 18.8564C27.6053 18.5906 27.5172 18.2781 27.3893 18.0993Z" fill="black"/>
<path d="M27.7588 33.6211C27.4879 32.9496 23.8466 32.5487 22.9771 33.1094C22.7182 33.2715 22.5481 33.7944 22.3666 34.9702C22.2802 35.5036 21.831 37.6876 21.3706 39.8113C20.4595 44.0224 20.3156 44.9074 20.472 45.6174C20.6633 46.5684 21.1801 46.9089 23.0346 47.2839C24.3341 47.5608 25.1498 47.6175 25.3771 47.444C25.532 47.3201 25.8064 46.058 25.7981 45.4781C25.7913 45.0069 25.8954 44.2556 26.4536 40.9335C27.1169 36.9327 27.4275 35.2831 27.5688 34.942C27.7408 34.552 27.835 33.8371 27.7588 33.6211Z" fill="black"/>
<path d="M25.7177 27.5336C25.0979 25.8416 25.0448 25.7822 24.1219 25.5342C23.4192 25.3423 23.2728 25.3331 22.878 25.4857C22.4625 25.6509 22.4318 25.6998 22.4068 26.1354C22.3559 26.9581 22.9453 28.7111 23.5092 29.4253C23.7111 29.6631 23.8159 29.6852 24.7872 29.6664C25.4661 29.6533 25.8832 29.5969 25.9654 29.4986C26.181 29.2406 26.0872 28.5294 25.7177 27.5336Z" fill="black"/>
<path d="M21.601 13.0028C21.5481 12.9554 21.4562 10.1898 21.377 6.85589L21.2378 0.79197L20.6082 0.598742C20.1885 0.47395 19.5819 0.425295 18.7777 0.440898C17.2006 0.471495 14.9467 0.660242 14.8541 0.758718C14.813 0.807855 14.9935 1.73489 15.2491 2.80549C15.4945 3.88837 16.2063 6.89578 16.8078 9.50654C17.4199 12.1171 17.9839 14.2935 18.0579 14.3525C18.2269 14.4822 20.5749 14.3037 21.0322 14.1377C21.4894 13.9596 21.8348 13.2762 21.601 13.0028Z" fill="black"/>
<path d="M19.817 17.4967C19.4983 17.1282 19.4036 17.0817 18.9336 17.0908C18.192 17.1052 17.2677 17.4856 16.3996 18.1429C15.304 18.9617 14.8726 19.4776 14.8792 19.9367C14.8881 20.5529 15.3603 20.7008 16.9783 20.6091C17.7507 20.5579 18.397 20.4608 18.5627 20.3609C18.8425 20.1984 19.9785 18.557 20.1082 18.1315C20.1479 17.9857 20.0509 17.7822 19.817 17.4967Z" fill="black"/>
<path d="M19.5155 27.7744C19.4266 27.4015 18.02 25.483 17.6403 25.2366C17.4188 25.0838 16.926 24.9604 16.1726 24.8783C14.9797 24.7443 14.4268 24.8033 14.2221 25.0973C14.0277 25.379 14.3001 26.1593 14.832 26.8257C15.3426 27.4563 15.7739 27.6655 17.2832 28.0109C17.5976 28.0774 18.0387 28.238 18.2807 28.3542C18.8594 28.6451 19.3503 28.6356 19.4922 28.3307C19.5425 28.1968 19.5825 28.0752 19.5822 28.051C19.5714 28.0271 19.5383 27.9069 19.5155 27.7744Z" fill="black"/>
<path d="M19.5477 32.9221C19.4005 32.1274 19.2525 32.0094 18.1533 31.8494C16.9494 31.6793 16.532 31.7116 16.2018 31.9959C15.9128 32.2432 15.5283 33.1087 15.4428 33.7025C15.3383 34.4296 14.9936 35.1614 13.5777 37.6783C11.7546 40.9402 10.6974 42.9789 10.7418 43.1593C10.8088 43.4601 11.8453 44.3464 12.5715 44.7191C13.5609 45.2317 15.5244 45.9187 15.9526 45.9105C16.5793 45.8983 16.8547 45.4338 17.2574 43.6495C17.4539 42.7877 18.0538 40.1899 18.5953 37.8833C19.1367 35.5767 19.5895 33.6464 19.6093 33.5735C19.6189 33.5129 19.5937 33.2113 19.5477 32.9221Z" fill="black"/>
<path d="M13.7882 10.1812C13.1305 8.03073 12.3843 5.5436 12.1417 4.65401C11.5571 2.50213 11.4274 2.20252 10.9985 2.16248C10.4649 2.11239 8.51515 3.10483 7.97012 3.70754C7.58959 4.12579 4.1077 9.00297 3.21851 10.3737C2.30878 11.769 1.03255 16.0113 0.507277 19.4415C0.143404 21.7447 0.388775 30.0906 0.849669 31.6285C1.14591 32.6138 2.14606 34.6005 3.32376 36.5838C4.71538 38.9134 5.14149 39.4852 6.0623 40.3134C6.50704 40.7277 7.05761 41.2367 7.28006 41.4499C7.757 41.9241 7.9765 41.9319 8.31508 41.5024C8.45852 41.3063 9.52494 39.1829 10.6916 36.7675C11.8583 34.3521 12.9965 32.1306 13.2323 31.8239C13.7963 31.0879 13.8869 30.8445 13.8766 30.1316C13.8683 29.5517 13.8359 29.4798 13.219 28.7184C12.0704 27.3025 11.7297 26.1368 11.692 23.5152C11.6651 21.6425 11.7203 21.1218 12.1655 19.385C12.521 17.9521 12.7255 17.6461 13.7386 16.9014C14.5863 16.2807 14.9124 15.7064 14.9714 14.7264C14.9946 14.1579 14.8616 13.6288 13.7882 10.1812Z" fill="black"/>
<path d="M75.9302 46.0144H57.9182C57.1962 46.0144 56.6642 45.8624 56.3222 45.5584C56.0182 45.2164 55.8662 44.6844 55.8662 43.9624V37.2934C55.8662 36.5714 56.0182 36.0584 56.3222 35.7544C56.6642 35.4124 57.1962 35.2414 57.9182 35.2414H73.2512C73.7452 35.2414 74.1062 35.0894 74.3342 34.7854C74.6002 34.4434 74.7332 34.0444 74.7332 33.5884C74.7332 32.9424 74.6002 32.4674 74.3342 32.1634C74.1062 31.8594 73.7452 31.6884 73.2512 31.6504L64.7012 30.4534C62.0412 30.0734 59.8942 29.1994 58.2602 27.8314C56.6642 26.4634 55.8662 24.1834 55.8662 20.9914V15.0064C55.8662 11.7764 56.9112 9.3064 59.0012 7.5964C61.0912 5.8484 63.9792 4.9744 67.6652 4.9744H83.6252C84.3472 4.9744 84.8602 5.1454 85.1642 5.4874C85.5062 5.7914 85.6772 6.3044 85.6772 7.0264V13.8094C85.6772 14.5314 85.5062 15.0634 85.1642 15.4054C84.8602 15.7094 84.3472 15.8614 83.6252 15.8614H70.3442C69.8502 15.8614 69.4702 16.0324 69.2042 16.3744C68.9382 16.6784 68.8052 17.0774 68.8052 17.5714C68.8052 18.0654 68.9382 18.4834 69.2042 18.8254C69.4702 19.1674 69.8502 19.3574 70.3442 19.3954L78.8372 20.5354C81.4972 20.9154 83.6442 21.7894 85.2782 23.1574C86.9122 24.5254 87.7292 26.8054 87.7292 29.9974V35.9824C87.7292 39.2124 86.6652 41.7014 84.5372 43.4494C82.4472 45.1594 79.5782 46.0144 75.9302 46.0144ZM128.734 35.2414C128.734 36.9894 128.468 38.5854 127.936 40.0294C127.442 41.4354 126.53 42.6514 125.2 43.6774C123.908 44.6654 122.103 45.4444 119.785 46.0144C117.505 46.5844 114.598 46.8694 111.064 46.8694C107.53 46.8694 104.604 46.5844 102.286 46.0144C99.9684 45.4444 98.1444 44.6654 96.8144 43.6774C95.5224 42.6514 94.6104 41.4354 94.0784 40.0294C93.5844 38.5854 93.3374 36.9894 93.3374 35.2414V15.8044C93.3374 14.0564 93.5844 12.4794 94.0784 11.0734C94.6104 9.6294 95.5224 8.3944 96.8144 7.3684C98.1444 6.3424 99.9684 5.5444 102.286 4.9744C104.604 4.4044 107.53 4.1194 111.064 4.1194C114.598 4.1194 117.505 4.4044 119.785 4.9744C122.103 5.5444 123.908 6.3424 125.2 7.3684C126.53 8.3944 127.442 9.6294 127.936 11.0734C128.468 12.4794 128.734 14.0564 128.734 15.8044V35.2414ZM106.276 33.1894C106.276 33.9494 106.561 34.5954 107.131 35.1274C107.701 35.6214 109.012 35.8684 111.064 35.8684C113.116 35.8684 114.427 35.6214 114.997 35.1274C115.567 34.5954 115.852 33.9494 115.852 33.1894V17.8564C115.852 17.1344 115.567 16.5264 114.997 16.0324C114.427 15.5004 113.116 15.2344 111.064 15.2344C109.012 15.2344 107.701 15.5004 107.131 16.0324C106.561 16.5264 106.276 17.1344 106.276 17.8564V33.1894ZM167.056 46.0144H138.043C137.321 46.0144 136.789 45.8624 136.447 45.5584C136.143 45.2164 135.991 44.6844 135.991 43.9624V7.0264C135.991 6.3044 136.143 5.7914 136.447 5.4874C136.789 5.1454 137.321 4.9744 138.043 4.9744H146.878C147.6 4.9744 148.113 5.1454 148.417 5.4874C148.759 5.7914 148.93 6.3044 148.93 7.0264V35.2414H156.739V26.0074C156.739 25.2854 156.891 24.7724 157.195 24.4684C157.537 24.1264 158.069 23.9554 158.791 23.9554H167.056C167.778 23.9554 168.291 24.1264 168.595 24.4684C168.937 24.7724 169.108 25.2854 169.108 26.0074V43.9624C169.108 44.6844 168.937 45.2164 168.595 45.5584C168.291 45.8624 167.778 46.0144 167.056 46.0144ZM204.124 46.0144H177.676C176.954 46.0144 176.422 45.8624 176.08 45.5584C175.776 45.2164 175.624 44.6844 175.624 43.9624V7.0264C175.624 6.3044 175.776 5.7914 176.08 5.4874C176.422 5.1454 176.954 4.9744 177.676 4.9744H204.124C204.846 4.9744 205.359 5.1454 205.663 5.4874C206.005 5.7914 206.176 6.3044 206.176 7.0264V13.6954C206.176 14.4174 206.005 14.9494 205.663 15.2914C205.359 15.5954 204.846 15.7474 204.124 15.7474H188.392V20.1364H199.507C200.229 20.1364 200.742 20.3074 201.046 20.6494C201.388 20.9534 201.559 21.4664 201.559 22.1884V28.2874C201.559 29.0094 201.388 29.5414 201.046 29.8834C200.742 30.1874 200.229 30.3394 199.507 30.3394H188.392V35.2414H204.124C204.846 35.2414 205.359 35.4124 205.663 35.7544C206.005 36.0584 206.176 36.5714 206.176 37.2934V43.9624C206.176 44.6844 206.005 45.2164 205.663 45.5584C205.359 45.8624 204.846 46.0144 204.124 46.0144ZM249.661 46.0144H227.773C227.051 46.0144 226.519 45.8624 226.177 45.5584C225.873 45.2164 225.721 44.6844 225.721 43.9624V7.0264C225.721 6.3044 225.873 5.7914 226.177 5.4874C226.519 5.1454 227.051 4.9744 227.773 4.9744H245.956C249.68 4.9744 252.435 5.6964 254.221 7.1404C256.007 8.5464 256.9 10.7314 256.9 13.6954V16.4314C256.9 18.0274 256.615 19.3384 256.045 20.3644C255.513 21.3524 254.677 22.0934 253.537 22.5874C255.969 22.8154 257.774 23.6514 258.952 25.0954C260.13 26.5394 260.719 28.6484 260.719 31.4224V36.6664C260.719 39.8584 259.807 42.2144 257.983 43.7344C256.197 45.2544 253.423 46.0144 249.661 46.0144ZM238.546 14.6644V20.8204H243.391C244.113 20.8204 244.645 20.6304 244.987 20.2504C245.367 19.8704 245.557 19.3004 245.557 18.5404V16.9444C245.557 16.1844 245.367 15.6144 244.987 15.2344C244.645 14.8544 244.113 14.6644 243.391 14.6644H238.546ZM238.546 29.5984V36.3244H245.956C246.678 36.3244 247.21 36.1344 247.552 35.7544C247.932 35.3744 248.122 34.8044 248.122 34.0444V31.8214C248.122 31.0614 247.932 30.5104 247.552 30.1684C247.21 29.7884 246.678 29.5984 245.956 29.5984H238.546ZM301.794 35.2414C301.794 36.9894 301.528 38.5854 300.996 40.0294C300.502 41.4354 299.59 42.6514 298.26 43.6774C296.968 44.6654 295.163 45.4444 292.845 46.0144C290.565 46.5844 287.658 46.8694 284.124 46.8694C280.59 46.8694 277.664 46.5844 275.346 46.0144C273.028 45.4444 271.204 44.6654 269.874 43.6774C268.582 42.6514 267.67 41.4354 267.138 40.0294C266.644 38.5854 266.397 36.9894 266.397 35.2414V15.8044C266.397 14.0564 266.644 12.4794 267.138 11.0734C267.67 9.6294 268.582 8.3944 269.874 7.3684C271.204 6.3424 273.028 5.5444 275.346 4.9744C277.664 4.4044 280.59 4.1194 284.124 4.1194C287.658 4.1194 290.565 4.4044 292.845 4.9744C295.163 5.5444 296.968 6.3424 298.26 7.3684C299.59 8.3944 300.502 9.6294 300.996 11.0734C301.528 12.4794 301.794 14.0564 301.794 15.8044V35.2414ZM279.336 33.1894C279.336 33.9494 279.621 34.5954 280.191 35.1274C280.761 35.6214 282.072 35.8684 284.124 35.8684C286.176 35.8684 287.487 35.6214 288.057 35.1274C288.627 34.5954 288.912 33.9494 288.912 33.1894V17.8564C288.912 17.1344 288.627 16.5264 288.057 16.0324C287.487 15.5004 286.176 15.2344 284.124 15.2344C282.072 15.2344 280.761 15.5004 280.191 16.0324C279.621 16.5264 279.336 17.1344 279.336 17.8564V33.1894ZM321.305 43.9624C321.305 44.6844 321.134 45.2164 320.792 45.5584C320.488 45.8624 319.975 46.0144 319.253 46.0144H310.589C309.867 46.0144 309.335 45.8624 308.993 45.5584C308.689 45.2164 308.537 44.6844 308.537 43.9624V37.8634C308.537 36.1154 308.689 34.8044 308.993 33.9304C309.297 33.0564 309.867 32.0304 310.703 30.8524L315.32 24.6394L310.703 18.4264C309.829 17.2484 309.24 16.2224 308.936 15.3484C308.67 14.4744 308.537 13.1634 308.537 11.4154V7.0264C308.537 6.3044 308.689 5.7914 308.993 5.4874C309.335 5.1454 309.867 4.9744 310.589 4.9744H319.367C320.089 4.9744 320.602 5.1454 320.906 5.4874C321.248 5.7914 321.419 6.3044 321.419 7.0264V10.9594C321.419 11.3394 321.438 11.7384 321.476 12.1564C321.514 12.5744 321.666 12.9734 321.932 13.3534L324.44 16.9444C324.63 17.2484 324.82 17.4954 325.01 17.6854C325.238 17.8374 325.504 17.9134 325.808 17.9134H326.492C326.796 17.9134 327.043 17.8374 327.233 17.6854C327.423 17.4954 327.632 17.2484 327.86 16.9444L330.425 13.3534C330.691 12.9734 330.843 12.5744 330.881 12.1564C330.919 11.7384 330.938 11.3394 330.938 10.9594V7.0264C330.938 6.3044 331.09 5.7914 331.394 5.4874C331.736 5.1454 332.268 4.9744 332.99 4.9744H341.654C342.376 4.9744 342.889 5.1454 343.193 5.4874C343.535 5.7914 343.706 6.3044 343.706 7.0264V11.4154C343.706 13.1634 343.554 14.4744 343.25 15.3484C342.946 16.2224 342.376 17.2484 341.54 18.4264L336.923 24.6964L341.54 30.8524C342.414 32.0304 342.984 33.0564 343.25 33.9304C343.554 34.8044 343.706 36.1154 343.706 37.8634V43.9624C343.706 44.6844 343.535 45.2164 343.193 45.5584C342.889 45.8624 342.376 46.0144 341.654 46.0144H332.99C332.268 46.0144 331.736 45.8624 331.394 45.5584C331.09 45.2164 330.938 44.6844 330.938 43.9624V38.3194C330.938 37.9394 330.919 37.5404 330.881 37.1224C330.843 36.7044 330.691 36.3054 330.425 35.9254L327.917 32.3344C327.689 31.9924 327.48 31.7454 327.29 31.5934C327.1 31.4414 326.853 31.3654 326.549 31.3654H325.751C325.447 31.3654 325.2 31.4414 325.01 31.5934C324.82 31.7454 324.611 31.9924 324.383 32.3344L321.818 35.9254C321.552 36.3054 321.4 36.7044 321.362 37.1224C321.324 37.5404 321.305 37.9394 321.305 38.3194V43.9624Z" fill="black"/>
</svg>
