<svg width="32" height="32" viewBox="0 0 32 32" fill="none" xmlns="http://www.w3.org/2000/svg">
<path d="M1 30.9999C1.82526 28.0803 3.71566 25.4809 6.38008 23.6021C9.04451 21.7233 12.3352 20.6693 15.7454 20.6024C19.1555 20.5355 22.496 21.4594 25.2525 23.2319C28.0089 25.0044 30.0285 27.5271 31 30.4115" stroke="black" stroke-width="2" stroke-linecap="round" stroke-linejoin="round"/>
<path d="M16.7485 14.6416L15.2437 14.6416C13.3581 14.6416 11.5497 13.9808 10.2164 12.8046C8.88314 11.6284 8.13411 10.0332 8.13411 8.3698L8.13411 7.79573C8.13411 5.99341 8.94571 4.26488 10.3904 2.99044C11.835 1.71601 13.7944 1.00006 15.8375 1.00006C16.8921 0.999111 17.9366 1.18169 18.9112 1.53729C19.8858 1.89289 20.7713 2.41456 21.517 3.07243C22.2628 3.73031 22.8541 4.51147 23.2572 5.37121C23.6603 6.23095 23.8673 7.15237 23.8662 8.08274V8.3698C23.8662 10.0332 23.1172 11.6284 21.7839 12.8046C20.4506 13.9808 18.6422 14.6416 16.7567 14.6416H16.7485Z" stroke="black" stroke-width="2" stroke-linecap="round" stroke-linejoin="round"/>
</svg>
